HIERARCHY
ROOT ui
{
	 OFFSET 0 0 0
	 CHANNELS 3 XPosition YPosition Z Position
	 EndSite
	 {
	 OFFSET 0 -1 0
	 }
}
ROOT li
{
	 OFFSET 0 0 0
	 CHANNELS 3 XPosition YPosition Z Position
	 EndSite
	 {
	 OFFSET 0 -1 0
	 }
}
ROOT ul
{
	 OFFSET 0 0 0
	 CHANNELS 3 XPosition YPosition Z Position
	 EndSite
	 {
	 OFFSET 0 -1 0
	 }
}
ROOT ll
{
	 OFFSET 0 0 0
	 CHANNELS 3 XPosition YPosition Z Position
	 EndSite
	 {
	 OFFSET 0 -1 0
	 }
}
ROOT tt
{
	 OFFSET 0 0 0
	 CHANNELS 3 XPosition YPosition Z Position
	 EndSite
	 {
	 OFFSET 0 -1 0
	 }
}
ROOT tb
{
	 OFFSET 0 0 0
	 CHANNELS 3 XPosition YPosition Z Position
	 EndSite
	 {
	 OFFSET 0 -1 0
	 }
}
ROOT td
{
	 OFFSET 0 0 0
	 CHANNELS 3 XPosition YPosition Z Position
	 EndSite
	 {
	 OFFSET 0 -1 0
	 }
}
ROOT v
{
	 OFFSET 0 0 0
	 CHANNELS 3 XPosition YPosition Z Position
	 EndSite
	 {
	 OFFSET 0 -1 0
	 }
}
ROOT bn
{
	 OFFSET 0 0 0
	 CHANNELS 3 XPosition YPosition Z Position
	 EndSite
	 {
	 OFFSET 0 -1 0
	 }
}
MOTION
Frames: 19
Frame Time: 0.002
0.012405364990234376	-0.0012997050285339356	0		0.4795316162109375	-2.372290771484375	0		-1.0084127807617187	0.38351620483398435	0		-0.5773352661132812	-2.659973388671875	0		1.37395654296875	-0.64874658203125	0		2.743375	0.27888970947265623	0		4.2196982421875	0.712703857421875	0		5.98317626953125	0.7225059814453125	0		-0.1600271453857422	5.94133349609375	0		
0.012471850395202638	-0.0013793569803237915	0		0.477544189453125	-2.375338134765625	0		-0.93350341796875	0.3732080688476562	0		-0.5844047241210938	-2.667935791015625	0		1.3796923828125	-0.6689249267578125	0		2.73527880859375	0.2689371337890625	0		4.19776904296875	0.712976806640625	0		5.991044921875	0.7185744018554687	0		-0.1599483184814453	5.94125390625	0		
0.01255666446685791	-0.0014497499465942383	0		0.475193359375	-2.402370361328125	0		-1.0023448486328126	0.3782672119140625	0		-0.5805912475585937	-2.685071533203125	0		1.386449951171875	-0.689103271484375	0		2.7304619140625	0.27495660400390626	0		4.205833984375	0.711788330078125	0		5.99477587890625	0.7339113159179688	0		-0.27806332397460937	5.93112255859375	0		
0.012657461166381835	-0.0015102759599685668	0		0.513161376953125	-2.412049560546875	0		-1.0022471923828125	0.3781982116699219	0		-0.5628151245117188	-2.706429443359375	0		1.324449951171875	-0.6951337890625	0		2.7403623046875	0.26275628662109374	0		4.21004345703125	0.7186962280273438	0		5.98842919921875	0.7341495971679688	0		-0.2780121154785156	5.9310595703125	0		
0.014965228080749512	0.010405435562133789	0		0.45095367431640626	-2.372064697265625	0		-0.9980761108398437	0.38206829833984374	0		-0.5657319946289062	-2.7104375	0		1.5261827392578124	-0.720475341796875	0		2.7404697265625	0.2627437744140625	0		4.20214599609375	0.7188350219726563	0		5.99492529296875	0.7339511108398438	0		-0.14562271118164063	5.951837890625	0		
0.012881564140319825	-0.0015989669561386108	0		0.5114324951171875	-2.4140888671875	0		-1.00203564453125	0.3780760498046875	0		-0.56387841796875	-2.729517822265625	0		1.3981300048828125	-0.7303867797851562	0		2.730300537109375	0.24592361450195313	0		4.20203173828125	0.7058787231445313	0		5.99500390625	0.7340856323242188	0		-0.16078640747070314	5.94204296875	0		
-0.06398836135864258	6.321179866790772E-4	0		0.4815669555664063	-2.415613525390625	0		-1.0110712280273437	0.37017108154296874	0		-0.5718372192382812	-2.73742822265625	0		1.52290771484375	-0.7524222412109375	0		2.742314453125	0.24076719665527344	0		4.20621533203125	0.7118881225585938	0		5.9992255859375	0.7150988159179688	0		-0.14566860961914063	5.95176416015625	0		
0.013069377899169923	-0.0016453609466552735	0		0.5056378479003907	-2.42100927734375	0		-1.001868408203125	0.3779745178222656	0		-0.5788016357421875	-2.745348388671875	0		1.4106864013671876	-0.771564697265625	0		2.716117431640625	0.22425631713867186	0		4.18428173828125	0.7123529663085938	0		5.99355419921875	0.7121431274414063	0		-0.2761510009765625	5.92886669921875	0		
0.013129107475280762	-0.001654667019844055	0		0.49071502685546875	-2.424757080078125	0		-0.9977567138671875	0.3818656921386719	0		-0.5708470458984375	-2.75750634765625	0		1.5446072998046876	-0.7827093505859375	0		2.750426025390625	0.23978102111816407	0		4.206314453125	0.7121242065429687	0		6.0071435546875	0.71193994140625	0		-0.27628887939453123	5.92884765625	0		
0.02027283477783203	0.005229581832885742	0		0.5188298950195313	-2.425196044921875	0		-0.9926753540039063	0.38574627685546875	0		-0.5727486572265625	-2.75949560546875	0		1.5416181640625	-0.7856057739257812	0		2.708031005859375	0.21456527709960938	0		4.1983369140625	0.7134049072265625	0		5.98994189453125	0.6974249877929688	0		-0.2926331787109375	5.91909765625	0		
-0.06381721115112304	5.993499755859376E-4	0		0.48684320068359377	-2.429650390625	0		-1.0018224487304688	0.37786083984375	0		-0.5488919677734375	-2.774899169921875	0		1.5483033447265624	-0.8066510009765625	0		2.719936279296875	0.20948196411132813	0		4.18930712890625	0.7137191162109375	0		6.003474609375	0.6955772705078125	0		-0.15951008605957032	5.93993212890625	0		
0.013113869667053222	-0.00163646399974823	0		0.5118157958984375	-2.43502197265625	0		-1.0018804931640626	0.37783209228515624	0		-0.5810757446289062	-2.7903896484375	0		1.5450029296875	-0.8245245361328125	0		2.713675537109375	0.1967042236328125	0		4.18902490234375	0.7009044189453125	0		5.997033203125	0.698009765625	0		-0.16077938842773437	5.9409541015625	0		
-0.06394155502319336	6.233839988708496E-4	0		0.5098062133789063	-2.436950439453125	0		-1.0019783325195313	0.3778064270019531	0		-0.5423659057617187	-2.81102392578125	0		1.5457467041015625	-0.837455810546875	0		2.7365986328125	0.19746612548828124	0		4.189123046875	0.714098876953125	0		6.00705908203125	0.7136649169921875	0		-0.2934849853515625	5.91909716796875	0		
0.01291800022125244	-0.0015975890159606934	0		0.494736572265625	-2.44066552734375	0		-0.9861918334960937	0.37252618408203125	0		-0.567466064453125	-2.8176240234375	0		1.5663929443359375	-0.854702880859375	0		2.719188232421875	0.17988291931152345	0		4.18097802734375	0.7144324340820313	0		6.00697314453125	0.714162841796875	0		-0.307034912109375	5.9083154296875	0		
0.01684607696533203	0.002361093044281006	0		0.5206748046875	-2.44303759765625	0		-0.9981981811523437	0.38169619750976563	0		-0.5396556396484375	-2.829074462890625	0		1.5581201171875	-0.8654801635742188	0		2.746960693359375	0.17457888793945311	0		4.202615234375	0.702291015625	0		6.0103232421875	0.697236572265625	0		-0.17409930419921876	5.9281875	0		
0.01263827419281006	-0.0015499329566955567	0		0.5077072448730469	-2.43878271484375	0		-1.0024232177734376	0.37773904418945314	0		-0.5467984008789063	-2.836962158203125	0		1.5549515380859376	-0.8693372192382812	0		2.724619384765625	0.16308090209960938	0		4.18042578125	0.7018577270507812	0		6.01021630859375	0.6977555541992188	0		-0.1906707763671875	5.91846044921875	0		
0.012495950698852539	-0.001526049017906189	0		0.5056287536621094	-2.441703857421875	0		-1.0076460571289063	0.37379678344726563	0		-0.5328766479492187	-2.841186767578125	0		1.5456905517578126	-0.879097900390625	0		2.73230908203125	0.15310244750976562	0		4.1830595703125	0.69002587890625	0		6.01011083984375	0.6982769775390625	0		-0.19108381652832032	5.91847509765625	0		
0.009315089225769043	-0.004455566883087158	0		0.48648095703125	-2.44935595703125	0		-1.007796630859375	0.37377294921875	0		-0.5512291870117187	-2.86289990234375	0		1.5494212646484375	-0.8900682983398438	0		2.735770263671875	0.12818759155273438	0		4.17278466796875	0.683397216796875	0		6.01297802734375	0.7159791259765625	0		-0.32285079956054685	5.8965751953125	0		
0.012241711616516113	-0.0014834100008010865	0		0.5154644775390625	-2.44977490234375	0		-0.9920151977539062	0.3684950256347656	0		-0.5552867431640625	-2.866840576171875	0		1.5590687255859375	-0.9071367797851563	0		2.761719970703125	0.13291481018066406	0		4.18363232421875	0.6834263916015625	0		6.02368603515625	0.7316337280273437	0		-0.32323153686523437	5.8965810546875	0		
